<?xml version="1.0" encoding="UTF-8" standalone="no"?>
<!-- Created with Inkscape (http://www.inkscape.org/) -->

<svg
   xmlns:dc="http://purl.org/dc/elements/1.1/"
   xmlns:cc="http://creativecommons.org/ns#"
   xmlns:rdf="http://www.w3.org/1999/02/22-rdf-syntax-ns#"
   xmlns:svg="http://www.w3.org/2000/svg"
   xmlns="http://www.w3.org/2000/svg"
   version="1.1"
   width="300"
   height="300"
   id="svg2">
  <defs
     id="defs4">
    <linearGradient
       id="linearGradient3759">
      <stop
         id="stop3761"
         style="stop-color:#000000;stop-opacity:1"
         offset="0" />
    </linearGradient>
  </defs>
  <metadata
     id="metadata7">
    <rdf:RDF>
      <cc:Work
         rdf:about="">
        <dc:format>image/svg+xml</dc:format>
        <dc:type
           rdf:resource="http://purl.org/dc/dcmitype/StillImage" />
        <dc:title></dc:title>
      </cc:Work>
    </rdf:RDF>
  </metadata>
  <g
     transform="translate(0,-752.36218)"
     id="layer1">
    <path
       d="m 196.42857,132.5 a 63.92857,63.92857 0 1 1 -127.85714,0 63.92857,63.92857 0 1 1 127.85714,0 z"
       transform="matrix(2.038903,0,0,2.038903,-120.15465,632.20753)"
       id="path2985"
       style="color:#000000;fill:#000000;fill-opacity:1;fill-rule:evenodd;stroke:#322525;stroke-width:0.04904598;stroke-linecap:butt;stroke-linejoin:round;stroke-miterlimit:4;stroke-opacity:1;stroke-dasharray:none;stroke-dashoffset:0;marker:none;visibility:visible;display:inline;overflow:visible;enable-background:accumulate" />
    <path
       d="m 196.42857,132.5 a 63.92857,63.92857 0 1 1 -127.85714,0 63.92857,63.92857 0 1 1 127.85714,0 z"
       transform="matrix(1.7037396,0,0,1.7037396,-75.7455,676.61668)"
       id="path3757"
       style="color:#000000;fill:#ffffff;fill-opacity:1;fill-rule:evenodd;stroke:#322525;stroke-width:0.05869441;stroke-linecap:butt;stroke-linejoin:round;stroke-miterlimit:4;stroke-opacity:1;stroke-dasharray:none;stroke-dashoffset:0;marker:none;visibility:visible;display:inline;overflow:visible;enable-background:accumulate" />
    <path
       d="m 196.42857,132.5 a 63.92857,63.92857 0 1 1 -127.85714,0 63.92857,63.92857 0 1 1 127.85714,0 z"
       transform="matrix(1.2903792,0,0,1.2903792,-20.975248,731.38693)"
       id="path3765"
       style="color:#000000;fill:#000000;fill-opacity:1;fill-rule:evenodd;stroke:#322525;stroke-width:0.0774966;stroke-linecap:butt;stroke-linejoin:round;stroke-miterlimit:4;stroke-opacity:1;stroke-dasharray:none;stroke-dashoffset:0;marker:none;visibility:visible;display:inline;overflow:visible;enable-background:accumulate" />
    <path
       d="m 196.42857,132.5 a 63.92857,63.92857 0 1 1 -127.85714,0 63.92857,63.92857 0 1 1 127.85714,0 z"
       transform="matrix(0.89938127,0,0,0.89938127,30.831979,783.19416)"
       id="path3767"
       style="color:#000000;fill:#ffffff;fill-opacity:1;fill-rule:evenodd;stroke:#322525;stroke-width:0.11118756;stroke-linecap:butt;stroke-linejoin:round;stroke-miterlimit:4;stroke-opacity:1;stroke-dasharray:none;stroke-dashoffset:0;marker:none;visibility:visible;display:inline;overflow:visible;enable-background:accumulate" />
    <path
       d="m 196.42857,132.5 a 63.92857,63.92857 0 1 1 -127.85714,0 63.92857,63.92857 0 1 1 127.85714,0 z"
       transform="matrix(0.4971966,0,0,0.4971966,84.121445,836.48362)"
       id="path3771"
       style="color:#000000;fill:#000000;fill-opacity:1;fill-rule:evenodd;stroke:#322525;stroke-width:0.20112771;stroke-linecap:butt;stroke-linejoin:round;stroke-miterlimit:4;stroke-opacity:1;stroke-dasharray:none;stroke-dashoffset:0;marker:none;visibility:visible;display:inline;overflow:visible;enable-background:accumulate" />
  </g>
</svg>
